<svg width="81" height="80" viewBox="0 0 81 80" fill="none" xmlns="http://www.w3.org/2000/svg">
<path d="M80.4941 0H0V80H80.4941V0Z" fill="#BC85F3"/>
<path d="M73.7481 6.70441H6.74597V73.2957H73.7481V6.70441Z" fill="#252653"/>
<path fill-rule="evenodd" clip-rule="evenodd" d="M32.362 49.1828L35.1654 58.4513H43.0401L31.8575 21.1482C31.8367 21.0806 31.7846 21.0338 31.6754 21.0338L22.4224 21.0078C22.0636 21.0078 22.0532 21.195 22.0844 21.5487C22.1988 22.8334 22.1364 23.5511 21.8711 24.555L11.9576 58.4566L19.4265 58.4461L21.7515 49.1776L32.362 49.1828ZM31.0201 42.4628H23.3535L27.0723 27.4469L31.0201 42.4628Z" fill="#BC85F3"/>
<path fill-rule="evenodd" clip-rule="evenodd" d="M52.2255 46.1713L66.6797 46.1921C67.5899 45.027 67.7563 42.8373 67.7303 41.4018C67.6315 35.5764 63.7722 30.0007 56.8026 29.9643C45.0998 29.8967 42.8841 44.6941 46.8682 53.2293C48.1217 55.9132 50.6391 57.6192 53.5934 58.4306C54.9405 58.7999 56.3708 58.9871 57.8168 58.9923C60.6775 59.0027 63.5849 58.3109 65.9203 56.9794C65.9567 56.9586 66.0191 56.9586 66.0243 56.917V56.7506L66.0191 51.929C66.0191 51.7106 65.8527 51.5858 65.603 51.6638C62.6487 52.5532 52.6416 55.3931 52.1787 46.4418C52.1735 46.3741 52.1579 46.1713 52.2255 46.1713ZM59.4708 41.3394H52.111C52.1475 37.428 53.9419 35.2071 56.7141 35.1967C59.2315 35.1863 60.8335 36.9339 60.9115 41.2457C60.9115 41.4434 60.9115 41.3394 60.9115 41.3394H59.4708Z" fill="#BC85F3"/>
</svg>
