<svg width="80" height="80" viewBox="0 0 80 80" fill="none" xmlns="http://www.w3.org/2000/svg">
<path d="M27.3438 10.511L1.94375 54.4939C-2.06906 61.5201 24.5228 73.9629 27.2175 69.2447L52.4213 25.1148L27.3438 10.511Z" fill="#4985FF"/>
<path d="M27.4106 25.1148L52.6144 69.2447C55.31 73.9636 81.9013 61.5201 77.8878 54.4939L52.6841 10.364C49.9894 5.64513 23.3981 18.0886 27.4106 25.1148Z" fill="#8EFAFF"/>
<path d="M14.5916 47.2653C6.56626 47.2653 6.56626 76.7668 14.5916 76.7668H64.9991C73.0244 76.7668 73.0244 47.2653 64.9991 47.2653H14.5916Z" fill="#FC436F"/>
<path d="M40.2353 47.2653L52.7894 69.3306C52.8309 69.4022 52.8409 69.419 52.8503 69.4358C55.5816 74.1008 60.4644 76.6943 65.4681 76.6943C67.9388 76.6943 70.4397 76.0613 72.7222 74.7291C77.3894 72.0049 80 67.0214 80 61.9136C80 61.8423 80 61.772 79.9988 61.701C79.9975 61.6353 79.9959 61.569 79.9947 61.5033C79.9934 61.4669 79.9922 61.4308 79.9906 61.3946C79.9888 61.3383 79.9869 61.2847 79.9841 61.2315C79.9709 60.9681 79.9481 60.7053 79.9219 60.442C79.1788 53.4441 73.5447 47.8696 66.5691 47.3111C66.4609 47.303 65.4228 47.2653 65.415 47.2653H40.2353Z" fill="#FA2B61"/>
<path d="M14.585 47.2653C14.4684 47.2659 13.5394 47.303 13.4756 47.3077C6.45563 47.8696 0.82125 53.4441 0.0784378 60.442C0.0328128 60.8607 0.00750035 61.2807 0.00156285 61.701C-0.0721871 66.8825 2.54563 71.9676 7.27813 74.7291C9.62 76.0763 12.0906 76.6936 14.5309 76.6943C19.5863 76.693 24.5159 74.0479 27.2109 69.3306L39.7887 47.3064L14.585 47.2653Z" fill="#4275F4"/>
<path d="M32.7519 4.96234C25.8016 9.01904 23.3981 18.0861 27.4106 25.1119L40.0066 47.1663L52.6266 25.0911C56.3766 18.5257 54.5219 10.1788 48.5919 5.80264C48.2556 5.55388 47.9088 5.32131 47.5513 5.10587C45.2703 3.73008 42.6497 3 39.9966 3C37.5288 3 35.0322 3.6317 32.7519 4.96234Z" fill="#83E7FF"/>
</svg>
