<svg width="180" height="180" viewBox="0 0 180 180" fill="none" xmlns="http://www.w3.org/2000/svg">
<mask id="mask0" mask-type="alpha" maskUnits="userSpaceOnUse" x="0" y="0" width="180" height="180">
<rect x="59.9993" width="133.461" height="133.461" transform="rotate(26.7158 59.9993 0)" fill="#C4C4C4"/>
</mask>
<g mask="url(#mask0)">
<rect x="47.6045" y="24.6274" width="133.461" height="105.89" transform="rotate(26.7158 47.6045 24.6274)" fill="url(#paint0_linear)"/>
<path d="M54.3628 114.136L49.0945 82.5254L131.431 85.9766L127.625 114.044L119.818 107.614L119.514 107.364L119.2 107.6L99.3689 122.473L74.2515 118.533L64.37 107.664L64.0739 107.338L63.7133 107.59L54.3628 114.136Z" fill="#60492D" stroke="black"/>
<mask id="mask1" mask-type="alpha" maskUnits="userSpaceOnUse" x="41" y="111" width="78" height="74">
<path d="M41 150C41 128.461 58.4609 111 80 111V111C101.539 111 119 128.461 119 150V185H41V150Z" fill="#121212"/>
</mask>
<g mask="url(#mask1)">
<path d="M41 150C41 128.461 58.4609 111 80 111V111C101.539 111 119 128.461 119 150V185H41V150Z" fill="#121212"/>
<path d="M112.614 118.492C110.155 133.062 96.3491 142.881 81.7783 140.421L74.3946 139.175C59.8239 136.715 50.0058 122.909 52.4654 108.338V108.338C52.6717 107.116 53.8296 106.293 55.0516 106.499L110.775 115.905C111.997 116.112 112.821 117.27 112.614 118.492V118.492Z" fill="black" fill-opacity="0.5"/>
<path d="M50 123C70.1655 126.047 72.9327 139.623 74.6879 168.261" stroke="black"/>
</g>
<g filter="url(#filter0_i)">
<path d="M78.8301 103L96.5787 105.997L94.2474 119.802C93.4197 124.703 88.7755 128.005 83.8743 127.178V127.178C78.9732 126.35 75.671 121.706 76.4987 116.805L78.8301 103Z" fill="#C4C4C4"/>
</g>
<path d="M79.2398 103.576L96.0025 106.407L93.7544 119.719C92.9726 124.348 88.5865 127.466 83.9576 126.685C79.3287 125.903 76.21 121.517 76.9917 116.888L79.2398 103.576Z" stroke="black"/>
<path d="M123.119 69.4068L118.814 96.021C118.37 98.7632 116.748 101.174 114.376 102.618L97.1356 113.114C95.6471 114.021 93.938 114.5 92.1954 114.5H87.8046C86.062 114.5 84.3529 114.021 82.8644 113.114L65.6242 102.618C63.2515 101.174 61.63 98.7632 61.1864 96.021L56.8811 69.4068C53.5809 49.0054 69.3333 30.5 90 30.5C110.667 30.5 126.419 49.0054 123.119 69.4068Z" fill="#C4C4C4" stroke="black"/>
<g style="mix-blend-mode:multiply">
<path d="M66 72H87V74.5C87 80.299 82.299 85 76.5 85V85C70.701 85 66 80.299 66 74.5V72Z" fill="#6B6B6B"/>
</g>
<g style="mix-blend-mode:multiply">
<path d="M96 72H117V74.5C117 80.299 112.299 85 106.5 85V85C100.701 85 96 80.299 96 74.5V72Z" fill="#6B6B6B"/>
</g>
<mask id="mask2" mask-type="alpha" maskUnits="userSpaceOnUse" x="69" y="73" width="45" height="10">
<mask id="path-13-inside-1" mask-type="luminance" fill="white">
<path d="M69 73H85V75C85 79.4183 81.4183 83 77 83C72.5817 83 69 79.4183 69 75V73Z"/>
<path d="M98 73H114V75C114 79.4183 110.418 83 106 83C101.582 83 98 79.4183 98 75V73Z"/>
</mask>
<path d="M69 73H85V75C85 79.4183 81.4183 83 77 83C72.5817 83 69 79.4183 69 75V73Z" fill="#E8E8E8"/>
<path d="M98 73H114V75C114 79.4183 110.418 83 106 83C101.582 83 98 79.4183 98 75V73Z" fill="#E8E8E8"/>
<path d="M69 73V72H68V73H69ZM85 73H86V72H85V73ZM98 73V72H97V73H98ZM114 73H115V72H114V73ZM69 74H85V72H69V74ZM84 73V75H86V73H84ZM70 75V73H68V75H70ZM77 82C73.134 82 70 78.866 70 75H68C68 79.9706 72.0294 84 77 84V82ZM84 75C84 78.866 80.866 82 77 82V84C81.9706 84 86 79.9706 86 75H84ZM98 74H114V72H98V74ZM113 73V75H115V73H113ZM99 75V73H97V75H99ZM106 82C102.134 82 99 78.866 99 75H97C97 79.9706 101.029 84 106 84V82ZM113 75C113 78.866 109.866 82 106 82V84C110.971 84 115 79.9706 115 75H113Z" fill="black" mask="url(#path-13-inside-1)"/>
</mask>
<g mask="url(#mask2)">
<path d="M69 73H85V75C85 79.4183 81.4183 83 77 83V83C72.5817 83 69 79.4183 69 75V73Z" fill="#EBEBEB"/>
<path d="M98 73H114V75C114 79.4183 110.418 83 106 83V83C101.582 83 98 79.4183 98 75V73Z" fill="#EBEBEB"/>
<ellipse cx="109" cy="75.5" rx="2" ry="3.5" fill="#36BFDE"/>
<ellipse cx="80" cy="75.5" rx="2" ry="3.5" fill="#36BFDE"/>
<path d="M69.5 73.5H84.5V75C84.5 79.1421 81.1421 82.5 77 82.5C72.8579 82.5 69.5 79.1421 69.5 75V73.5Z" stroke="black"/>
<path d="M98.5 73.5H113.5V75C113.5 79.1421 110.142 82.5 106 82.5C101.858 82.5 98.5 79.1421 98.5 75V73.5Z" stroke="black"/>
</g>
<rect x="62" y="70" width="25" height="26" fill="url(#paint1_linear)" fill-opacity="0.4"/>
<rect x="96" y="70" width="24" height="27" fill="url(#paint2_linear)" fill-opacity="0.4"/>
<ellipse cx="91.5" cy="91" rx="4.5" ry="4" fill="black"/>
<ellipse cx="91.5" cy="90" rx="4.5" ry="4" fill="#C0AEAE"/>
<path d="M75.2741 97.3645C77.0015 98.7248 78.6004 99.8111 81.4705 100.634C84.3406 101.456 87.5344 101.914 90.697 101.955C93.8597 101.996 96.8674 101.62 99.3858 100.867C101.904 100.115 103.543 98.6702 104.672 97.3471C103.635 98.5629 100.848 99.6044 98.5337 100.296C96.2195 100.987 93.4559 101.333 90.5498 101.295C87.6437 101.257 84.709 100.837 82.0717 100.081C79.4344 99.3253 76.8614 98.6145 75.2741 97.3645Z" fill="black"/>
<path d="M84 103.188C84.753 103.742 85.4514 104.184 86.714 104.508C87.9766 104.832 89.3853 105.002 90.7835 105C92.1817 104.998 93.5147 104.823 94.6344 104.495C95.7541 104.167 96.4905 103.557 97 103C96.5318 103.511 95.291 103.961 94.2622 104.263C93.2333 104.564 92.0084 104.725 90.7236 104.727C89.4388 104.729 88.1444 104.572 86.9842 104.274C85.8241 103.977 84.6919 103.697 84 103.188Z" fill="black" stroke="black" stroke-width="0.25"/>
<path d="M119.304 49.3135L119.253 48.9699L118.914 48.8971L91.5 43.0169V30.4212L105.374 28.0291L134.496 49.6428L135.498 84.6238L128.544 112.426L119.304 49.3135Z" fill="url(#paint3_linear)"/>
<path d="M119.304 49.3135L119.253 48.9699L118.914 48.8971L91.5 43.0169V30.4212L105.374 28.0291L134.496 49.6428L135.498 84.6238L128.544 112.426L119.304 49.3135Z" fill="url(#paint4_linear)"/>
<path d="M119.304 49.3135L119.253 48.9699L118.914 48.8971L91.5 43.0169V30.4212L105.374 28.0291L134.496 49.6428L135.498 84.6238L128.544 112.426L119.304 49.3135Z" stroke="black"/>
<path d="M63.0051 48.9288L63.0545 48.5854L63.3934 48.5115L90.5996 42.5756L93.882 30.8527L72.1497 25.0574L47.9942 49.2129L47.0017 84.4464L53.8715 112.383L63.0051 48.9288Z" fill="url(#paint5_linear)"/>
<path d="M63.0051 48.9288L63.0545 48.5854L63.3934 48.5115L90.5996 42.5756L93.882 30.8527L72.1497 25.0574L47.9942 49.2129L47.0017 84.4464L53.8715 112.383L63.0051 48.9288Z" fill="url(#paint6_linear)"/>
<path d="M63.0051 48.9288L63.0545 48.5854L63.3934 48.5115L90.5996 42.5756L93.882 30.8527L72.1497 25.0574L47.9942 49.2129L47.0017 84.4464L53.8715 112.383L63.0051 48.9288Z" stroke="black"/>
<g filter="url(#filter1_d)">
<path d="M85.5 36.5L107.5 33L130 56.5L127 98.5L116 124L119.157 64.6631L91 50.5882L85.5 36.5Z" fill="url(#paint7_linear)"/>
<path d="M85.5 36.5L107.5 33L130 56.5L127 98.5L116 124L119.157 64.6631L91 50.5882L85.5 36.5Z" fill="url(#paint8_linear)"/>
<path d="M119.656 64.6897L119.673 64.3624L119.38 64.2159L91.3958 50.2271L86.1915 36.8963L107.32 33.5349L129.485 56.6856L126.507 98.3798L116.648 121.236L119.656 64.6897Z" stroke="black"/>
</g>
<g filter="url(#filter2_d)">
<path d="M94.5 42L71 35.5L51 62L55.5 103.5L64.8193 128L62.8434 64.6631L91 50.5882L94.5 42Z" fill="url(#paint9_linear)"/>
<path d="M94.5 42L71 35.5L51 62L55.5 103.5L64.8193 128L62.8434 64.6631L91 50.5882L94.5 42Z" fill="url(#paint10_linear)"/>
<path d="M62.3436 64.6787L62.3336 64.3589L62.6198 64.2159L90.608 50.2252L93.8248 42.332L71.1943 36.0725L51.5184 62.1431L55.9902 103.382L64.2265 125.035L62.3436 64.6787Z" stroke="black"/>
</g>
<rect x="60" y="69" width="26" height="18" stroke="black" stroke-width="2"/>
<rect x="97" y="69" width="26" height="18" stroke="black" stroke-width="2"/>
<path d="M98 79.5C98 78.0413 97.3152 76.6424 96.0962 75.6109C94.8772 74.5795 93.2239 74 91.5 74C89.7761 74 88.1228 74.5795 86.9038 75.6109C85.6848 76.6424 85 78.0413 85 79.5L86.9672 79.5C86.9672 78.4828 87.4448 77.5072 88.2948 76.7879C89.1449 76.0687 90.2978 75.6646 91.5 75.6646C92.7022 75.6646 93.8551 76.0687 94.7052 76.7879C95.5552 77.5072 96.0328 78.4828 96.0328 79.5H98Z" fill="black"/>
<path d="M59 68C58.2044 68 57.4413 68.3161 56.8787 68.8787C56.3161 69.4413 56 70.2044 56 71C56 71.7956 56.3161 72.5587 56.8787 73.1213C57.4413 73.6839 58.2044 74 59 74L59 71L59 68Z" fill="black"/>
<path d="M87 78C86.2044 78 85.4413 78.3161 84.8787 78.8787C84.3161 79.4413 84 80.2044 84 81C84 81.7956 84.3161 82.5587 84.8787 83.1213C85.4413 83.6839 86.2044 84 87 84L87 81L87 78Z" fill="black"/>
<path d="M124 68C124.796 68 125.559 68.3161 126.121 68.8787C126.684 69.4413 127 70.2044 127 71C127 71.7956 126.684 72.5587 126.121 73.1213C125.559 73.6839 124.796 74 124 74L124 71L124 68Z" fill="black"/>
<path d="M96 78C96.7956 78 97.5587 78.3161 98.1213 78.8787C98.6839 79.4413 99 80.2044 99 81C99 81.7956 98.6839 82.5587 98.1213 83.1213C97.5587 83.6839 96.7956 84 96 84L96 81L96 78Z" fill="black"/>
<rect x="80.707" y="188.996" width="62" height="22" transform="rotate(-46.1181 80.707 188.996)" fill="#121212" stroke="black"/>
<ellipse cx="128.693" cy="155.07" rx="9.5" ry="13" transform="rotate(-7.06878 128.693 155.07)" fill="black"/>
<path d="M141.56 153.863C139.475 159.015 133.937 161.566 129.23 159.662C124.524 157.758 122.317 152.074 124.401 146.921C126.486 141.769 132.025 139.218 136.731 141.122C141.438 143.026 143.644 148.711 141.56 153.863Z" fill="#C4C4C4" stroke="black"/>
</g>
<path d="M126.678 154.477L128.595 150.967L136.339 155.194C137.308 155.723 137.665 156.938 137.136 157.908C136.607 158.877 135.392 159.234 134.422 158.705L126.678 154.477Z" fill="#C4C4C4" stroke="black"/>
<path d="M130.033 148.333L131.949 144.822L139.693 149.05C140.663 149.579 141.02 150.794 140.49 151.764C139.961 152.733 138.746 153.09 137.776 152.561L130.033 148.333Z" fill="#C4C4C4" stroke="black"/>
<path d="M133.387 142.189L135.303 138.678L143.047 142.906C144.017 143.435 144.374 144.65 143.844 145.62C143.315 146.589 142.1 146.946 141.131 146.417L133.387 142.189Z" fill="#C4C4C4" stroke="black"/>
<g style="mix-blend-mode:overlay">
<rect x="76" y="75" width="4" height="1" fill="white"/>
</g>
<g style="mix-blend-mode:overlay">
<rect x="106" y="75" width="4" height="1" fill="white"/>
</g>
<defs>
<filter id="filter0_i" x="75" y="103" width="21.5788" height="25.6763" filterUnits="userSpaceOnUse" color-interpolation-filters="sRGB">
<feFlood flood-opacity="0" result="BackgroundImageFix"/>
<feBlend mode="normal" in="SourceGraphic" in2="BackgroundImageFix" result="shape"/>
<feColorMatrix in="SourceAlpha" type="matrix" values="0 0 0 0 0 0 0 0 0 0 0 0 0 0 0 0 0 0 127 0" result="hardAlpha"/>
<feOffset dy="14"/>
<feComposite in2="hardAlpha" operator="arithmetic" k2="-1" k3="1"/>
<feColorMatrix type="matrix" values="0 0 0 0 0 0 0 0 0 0 0 0 0 0 0 0 0 0 0.25 0"/>
<feBlend mode="normal" in2="shape" result="effect1_innerShadow"/>
</filter>
<filter id="filter1_d" x="81.5" y="32" width="50.5" height="97" filterUnits="userSpaceOnUse" color-interpolation-filters="sRGB">
<feFlood flood-opacity="0" result="BackgroundImageFix"/>
<feColorMatrix in="SourceAlpha" type="matrix" values="0 0 0 0 0 0 0 0 0 0 0 0 0 0 0 0 0 0 127 0"/>
<feOffset dx="-1" dy="2"/>
<feGaussianBlur stdDeviation="1.5"/>
<feColorMatrix type="matrix" values="0 0 0 0 0 0 0 0 0 0 0 0 0 0 0 0 0 0 0.25 0"/>
<feBlend mode="normal" in2="BackgroundImageFix" result="effect1_dropShadow"/>
<feBlend mode="normal" in="SourceGraphic" in2="effect1_dropShadow" result="shape"/>
</filter>
<filter id="filter2_d" x="47" y="34.5" width="49.5" height="98.5" filterUnits="userSpaceOnUse" color-interpolation-filters="sRGB">
<feFlood flood-opacity="0" result="BackgroundImageFix"/>
<feColorMatrix in="SourceAlpha" type="matrix" values="0 0 0 0 0 0 0 0 0 0 0 0 0 0 0 0 0 0 127 0"/>
<feOffset dx="-1" dy="2"/>
<feGaussianBlur stdDeviation="1.5"/>
<feColorMatrix type="matrix" values="0 0 0 0 0 0 0 0 0 0 0 0 0 0 0 0 0 0 0.25 0"/>
<feBlend mode="normal" in2="BackgroundImageFix" result="effect1_dropShadow"/>
<feBlend mode="normal" in="SourceGraphic" in2="effect1_dropShadow" result="shape"/>
</filter>
<linearGradient id="paint0_linear" x1="113.706" y1="134.511" x2="123.99" y2="55.5692" gradientUnits="userSpaceOnUse">
<stop stop-color="#C6171B"/>
<stop offset="1" stop-color="#C6171B" stop-opacity="0"/>
</linearGradient>
<linearGradient id="paint1_linear" x1="74.5" y1="70" x2="74.5" y2="96" gradientUnits="userSpaceOnUse">
<stop/>
<stop offset="1" stop-opacity="0"/>
</linearGradient>
<linearGradient id="paint2_linear" x1="108" y1="70" x2="108" y2="97" gradientUnits="userSpaceOnUse">
<stop/>
<stop offset="1" stop-opacity="0"/>
</linearGradient>
<linearGradient id="paint3_linear" x1="95.5506" y1="34.8684" x2="140.772" y2="107.881" gradientUnits="userSpaceOnUse">
<stop stop-color="#917553"/>
<stop offset="0.298343" stop-color="#917553"/>
<stop offset="0.353591" stop-color="#D8BFA2"/>
<stop offset="0.38674" stop-color="#917553"/>
</linearGradient>
<linearGradient id="paint4_linear" x1="93.069" y1="36.9595" x2="120.41" y2="47.4798" gradientUnits="userSpaceOnUse">
<stop stop-color="#3B2B18"/>
<stop offset="1" stop-color="#907453" stop-opacity="0"/>
</linearGradient>
<linearGradient id="paint5_linear" x1="89.6461" y1="32.1211" x2="43.5299" y2="108.91" gradientUnits="userSpaceOnUse">
<stop stop-color="#917553"/>
<stop offset="0.298343" stop-color="#917553"/>
<stop offset="0.353591" stop-color="#D8BFA2"/>
<stop offset="0.38674" stop-color="#917553"/>
</linearGradient>
<linearGradient id="paint6_linear" x1="92.2931" y1="34.2838" x2="63.3668" y2="45.7626" gradientUnits="userSpaceOnUse">
<stop stop-color="#3B2B18"/>
<stop offset="1" stop-color="#907453" stop-opacity="0"/>
</linearGradient>
<linearGradient id="paint7_linear" x1="90" y1="41" x2="141" y2="116" gradientUnits="userSpaceOnUse">
<stop stop-color="#917553"/>
<stop offset="0.298343" stop-color="#917553"/>
<stop offset="0.353591" stop-color="#D8BFA2"/>
<stop offset="0.38674" stop-color="#917553"/>
</linearGradient>
<linearGradient id="paint8_linear" x1="87.546" y1="43.2703" x2="115.191" y2="52.9588" gradientUnits="userSpaceOnUse">
<stop stop-color="#3B2B18"/>
<stop offset="1" stop-color="#907453" stop-opacity="0"/>
</linearGradient>
<linearGradient id="paint9_linear" x1="90.1011" y1="43.2895" x2="40.5154" y2="116.497" gradientUnits="userSpaceOnUse">
<stop stop-color="#917553"/>
<stop offset="0.298343" stop-color="#917553"/>
<stop offset="0.353591" stop-color="#D8BFA2"/>
<stop offset="0.38674" stop-color="#917553"/>
</linearGradient>
<linearGradient id="paint10_linear" x1="92.5" y1="45.5" x2="65.5" y2="55" gradientUnits="userSpaceOnUse">
<stop stop-color="#3B2B18"/>
<stop offset="1" stop-color="#907453" stop-opacity="0"/>
</linearGradient>
</defs>
</svg>
