<svg width="80" height="80" viewBox="0 0 80 80" fill="none" xmlns="http://www.w3.org/2000/svg">
<path d="M62.913 0H19.087V80H79.4348V16.6268L62.913 0Z" fill="#C8C6C6"/>
<path d="M63.087 0V16.5217H79.4348L63.087 0Z" fill="#E6E6E6"/>
<path d="M27.7501 53.3237L42.917 42.9091V47.4294L31.7946 54.6974V54.7859L42.917 62.0096V66.4856L27.7501 56.0711V53.3237Z" fill="#7F7F7F"/>
<path d="M44.687 68.2585L52.0809 36.2616H54.7983L47.3729 68.2585H44.687Z" fill="#7F7F7F"/>
<path d="M71.861 56.6475L56.6943 66.4858V62.0983L68.8278 54.7418V54.6531L56.6943 47.2964V42.9089L71.861 52.7472V56.6475Z" fill="#7F7F7F"/>
<path d="M57.6957 4H1V22.7826H57.6957V4Z" fill="#016996"/>
<path d="M25.4237 18.8749C24.9878 19.1234 24.0073 19.3899 22.7311 19.3899C19.1047 19.3899 17.237 16.8149 17.237 13.4052C17.237 9.32065 19.7896 7.04761 22.9645 7.04761C24.1941 7.04761 25.1278 7.33178 25.5482 7.5803L25.0657 9.729C24.5833 9.49822 23.9141 9.285 23.0736 9.285C21.1903 9.285 19.7273 10.5813 19.7273 13.2452C19.7273 15.6426 20.9723 17.152 23.0892 17.152C23.8052 17.152 24.599 16.9744 25.0657 16.7613L25.4237 18.8749Z" fill="white"/>
<path d="M26.7471 16.4241C27.3852 16.7972 28.3657 17.17 29.3776 17.17C30.467 17.17 31.0429 16.6551 31.0429 15.8737C31.0429 15.1278 30.5449 14.7015 29.2842 14.1866C27.541 13.494 26.4049 12.393 26.4049 10.6527C26.4049 8.61039 27.899 7.04761 30.3737 7.04761C31.5565 7.04761 32.4282 7.33178 33.0508 7.65143L32.5216 9.83578C32.1014 9.60482 31.3543 9.26743 30.3271 9.26743C29.2998 9.26743 28.8017 9.80013 28.8017 10.4217C28.8017 11.1853 29.3932 11.5227 30.7473 12.1088C32.5995 12.8902 33.4709 13.9913 33.4709 15.6782C33.4709 17.685 32.1169 19.3897 29.2376 19.3897C28.0391 19.3897 26.8563 19.0346 26.2649 18.6615L26.7471 16.4241Z" fill="white"/>
<path d="M34.8409 16.4241C35.479 16.7972 36.4595 17.17 37.4711 17.17C38.5607 17.17 39.1365 16.6551 39.1365 15.8737C39.1365 15.1278 38.6384 14.7015 37.3777 14.1866C35.6346 13.494 34.4984 12.393 34.4984 10.6527C34.4984 8.61039 35.9925 7.04761 38.4671 7.04761C39.6501 7.04761 40.5216 7.33178 41.1442 7.65143L40.615 9.83578C40.1948 9.60482 39.4477 9.26743 38.4205 9.26743C37.3932 9.26743 36.8951 9.80013 36.8951 10.4217C36.8951 11.1853 37.4866 11.5227 38.8407 12.1088C40.6927 12.8902 41.5643 13.9913 41.5643 15.6782C41.5643 17.685 40.2103 19.3897 37.331 19.3897C36.1325 19.3897 34.9497 19.0346 34.3583 18.6615L34.8409 16.4241Z" fill="white"/>
</svg>
