<svg width="80" height="80" viewBox="0 0 80 80" fill="none" xmlns="http://www.w3.org/2000/svg">
<path d="M27.5 80C34.9558 80 41 73.9558 41 66.5V53H27.5C20.0442 53 14 59.0442 14 66.5C14 73.9558 20.0442 80 27.5 80Z" fill="#0ACF83"/>
<path d="M14 40C14 32.8203 20.0442 27 27.5 27H41V53H27.5C20.0442 53 14 47.1797 14 40Z" fill="#A259FF"/>
<path d="M14 13.5C14 6.04415 20.0442 0 27.5 0H41V27H27.5C20.0442 27 14 20.9558 14 13.5Z" fill="#F24E1E"/>
<path d="M41 0H54C61.1797 0 67 6.04415 67 13.5C67 20.9558 61.1797 27 54 27H41V0Z" fill="#FF7262"/>
<path d="M67 40C67 47.1797 61.1797 53 54 53C46.8203 53 41 47.1797 41 40C41 32.8203 46.8203 27 54 27C61.1797 27 67 32.8203 67 40Z" fill="#1ABCFE"/>
</svg>
