<svg width="80" height="80" viewBox="0 0 80 80" fill="none" xmlns="http://www.w3.org/2000/svg">
<path d="M11.4239 71.9995L5 0H75.5556L69.1237 72.0049L40.2606 80L11.4239 71.9995Z" fill="#E34E26"/>
<path d="M40 5.55554V73.8889L63.3802 67.3928L68.8889 5.55554H40Z" fill="#EF662A"/>
<path d="M18.3333 14.4445L20.6952 41.1442H51.0636L50.0444 52.5962L40.2666 55.2601L30.5072 52.5998L29.8546 45.2468H21.0598L22.3175 59.4214L40.2643 64.4445L58.2344 59.4214L60.6433 32.3162H28.7087L27.9071 23.2745H61.4104H61.4375L62.2222 14.4445H18.3333Z" fill="white"/>
<path d="M40 14.4445H18.3333L20.6653 41.6667H40V32.666H28.5774L27.7859 23.4473H40V14.4445Z" fill="#EBEBEB"/>
<path d="M40 55.404L39.989 55.4078L30.3967 52.7903L29.7553 45.5555H21.1111L22.3472 59.5022L39.9867 64.4444L40 64.4406V55.404Z" fill="#EBEBEB"/>
</svg>
