<svg width="43" height="58" viewBox="0 0 43 58" fill="none" xmlns="http://www.w3.org/2000/svg">
<path fill-rule="evenodd" clip-rule="evenodd" d="M22.3046 38.2929C20.7711 39.7866 19.2508 41.2555 17.7447 42.7359C17.2182 43.2545 16.6262 43.5412 15.8705 43.5014C15.3546 43.4739 15.0661 43.2474 14.9077 42.7581C13.7538 39.1769 12.5831 35.6045 11.4354 32.0198C11.3239 31.672 11.1593 31.503 10.8071 31.3942C8.08869 30.5641 5.37559 29.7146 2.66691 28.8536C2.25012 28.7209 1.8298 28.5475 1.46964 28.3023C0.913042 27.9254 0.83163 27.3104 1.33071 26.8679C1.79175 26.46 2.34216 26.1042 2.9138 25.8777C6.2366 24.561 9.57709 23.2867 12.9123 22.001C21.3763 18.733 29.8404 15.4678 38.3054 12.1998C39.915 11.5777 41.1521 12.4538 40.9848 14.1944C40.8778 15.3076 40.5893 16.4031 40.3566 17.5021C38.5186 26.1803 36.6789 34.8594 34.8312 43.5359C34.3923 45.5959 32.9455 46.134 31.2501 44.8836C28.4104 42.7908 25.5734 40.6909 22.7355 38.5946C22.6002 38.4964 22.4595 38.4017 22.3046 38.2929ZM15.9307 40.9281C15.9625 40.9192 15.9944 40.9104 16.0262 40.9024C16.0439 40.821 16.0696 40.7414 16.0767 40.6608C16.259 38.6937 16.4519 36.7275 16.6103 34.7568C16.6457 34.3179 16.7961 34.0064 17.1262 33.7108C19.7437 31.3703 22.3453 29.0147 24.9522 26.6644C27.8379 24.0619 30.7244 21.4621 33.5995 18.849C33.7773 18.6879 33.8517 18.4136 33.9738 18.1906C33.703 18.1614 33.4128 18.0525 33.1668 18.1163C32.8314 18.203 32.5137 18.3977 32.2146 18.5861C25.846 22.5974 19.4827 26.6157 13.1096 30.619C12.7495 30.8455 12.6822 31.0376 12.8194 31.4331C13.2892 32.7826 13.7167 34.1444 14.16 35.5037C14.7502 37.3124 15.3404 39.1202 15.9307 40.9281Z" fill="#D5C5BA"/>
<path fill-rule="evenodd" clip-rule="evenodd" d="M22.3046 38.2929C20.7711 39.7866 19.2508 41.2555 17.7447 42.7359C17.2182 43.2545 16.6262 43.5412 15.8705 43.5014C15.3546 43.4739 15.0661 43.2474 14.9077 42.7581C13.7538 39.1769 12.5831 35.6045 11.4354 32.0198C11.3239 31.672 11.1593 31.503 10.8071 31.3942C8.08869 30.5641 5.37559 29.7146 2.66691 28.8536C2.25012 28.7209 1.8298 28.5475 1.46964 28.3023C0.913042 27.9254 0.83163 27.3104 1.33071 26.8679C1.79175 26.46 2.34216 26.1042 2.9138 25.8777C6.2366 24.561 9.57709 23.2867 12.9123 22.001C21.3763 18.733 29.8404 15.4678 38.3054 12.1998C39.915 11.5777 41.1521 12.4538 40.9848 14.1944C40.8778 15.3076 40.5893 16.4031 40.3566 17.5021C38.5186 26.1803 36.6789 34.8594 34.8312 43.5359C34.3923 45.5959 32.9455 46.134 31.2501 44.8836C28.4104 42.7908 25.5734 40.6909 22.7355 38.5946C22.6002 38.4964 22.4595 38.4017 22.3046 38.2929ZM15.9307 40.9281C15.9625 40.9192 15.9944 40.9104 16.0262 40.9024C16.0439 40.821 16.0696 40.7414 16.0767 40.6608C16.259 38.6937 16.4519 36.7275 16.6103 34.7568C16.6457 34.3179 16.7961 34.0064 17.1262 33.7108C19.7437 31.3703 22.3453 29.0147 24.9522 26.6644C27.8379 24.0619 30.7244 21.4621 33.5995 18.849C33.7773 18.6879 33.8517 18.4136 33.9738 18.1906C33.703 18.1614 33.4128 18.0525 33.1668 18.1163C32.8314 18.203 32.5137 18.3977 32.2146 18.5861C25.846 22.5974 19.4827 26.6157 13.1096 30.619C12.7495 30.8455 12.6822 31.0376 12.8194 31.4331C13.2892 32.7826 13.7167 34.1444 14.16 35.5037C14.7502 37.3124 15.3404 39.1202 15.9307 40.9281Z" fill="url(#paint0_linear)"/>
<defs>
<linearGradient id="paint0_linear" x1="-4.5" y1="62.5" x2="41" y2="12" gradientUnits="userSpaceOnUse">
<stop/>
<stop offset="1" stop-color="#D5C5BA"/>
</linearGradient>
</defs>
</svg>
