<svg width="43" height="58" viewBox="0 0 43 58" fill="none" xmlns="http://www.w3.org/2000/svg">
<path fill-rule="evenodd" clip-rule="evenodd" d="M34.0759 18.3241C34.0759 19.6497 33.0013 20.7241 31.6759 20.7241C30.3506 20.7241 29.2759 19.6497 29.2759 18.3241C29.2759 16.9984 30.3506 15.9241 31.6759 15.9241C33.0016 15.9241 34.0759 16.9984 34.0759 18.3241ZM21 35.6666C17.3181 35.6666 14.3334 32.6819 14.3334 29C14.3334 25.3181 17.3181 22.3334 21 22.3334C24.6819 22.3334 27.6666 25.3181 27.6666 29C27.6666 32.6819 24.6819 35.6666 21 35.6666ZM21 18.7297C15.3278 18.7297 10.7297 23.3278 10.7297 29C10.7297 34.6722 15.3278 39.2703 21 39.2703C26.6722 39.2703 31.2703 34.6722 31.2703 29C31.2703 23.3278 26.6722 18.7297 21 18.7297ZM21 12.6037C26.3403 12.6037 26.9728 12.6241 29.0816 12.7203C31.0316 12.8094 32.0906 13.135 32.7953 13.4091C33.7288 13.7719 34.395 14.2053 35.095 14.9053C35.795 15.605 36.2284 16.2713 36.5912 17.205C36.865 17.9097 37.1909 18.9688 37.28 20.9187C37.3763 23.0278 37.3966 23.6603 37.3966 29.0006C37.3966 34.3409 37.3763 34.9734 37.28 37.0822C37.1909 39.0322 36.8653 40.0913 36.5912 40.7959C36.2284 41.7294 35.795 42.3956 35.095 43.0956C34.3953 43.7956 33.7291 44.2291 32.7953 44.5919C32.0906 44.8656 31.0316 45.1916 29.0816 45.2806C26.9728 45.3769 26.3403 45.3972 21 45.3972C15.6594 45.3972 15.0269 45.3769 12.9181 45.2806C10.9681 45.1916 9.90906 44.8659 9.20438 44.5919C8.27094 44.2291 7.60469 43.7956 6.90469 43.0956C6.205 42.3959 5.77125 41.7297 5.40844 40.7959C5.13469 40.0913 4.80875 39.0322 4.71969 37.0822C4.62344 34.9731 4.60312 34.3406 4.60312 29.0006C4.60312 23.6603 4.62344 23.0278 4.71969 20.9187C4.80875 18.9688 5.13438 17.9097 5.40844 17.205C5.77125 16.2716 6.20469 15.6053 6.90469 14.9053C7.60438 14.2053 8.27063 13.7719 9.20438 13.4091C9.90906 13.1353 10.9681 12.8094 12.9181 12.7203C15.0272 12.6241 15.6597 12.6037 21 12.6037ZM21 9C15.5684 9 14.8872 9.02313 12.7541 9.12031C10.6253 9.2175 9.17125 9.55562 7.89937 10.05C6.58406 10.5609 5.46875 11.245 4.35687 12.3569C3.245 13.4688 2.56094 14.5841 2.05 15.8994C1.55562 17.1716 1.2175 18.6253 1.12031 20.7541C1.02313 22.8872 1 23.5684 1 29C1 34.4316 1.02313 35.1128 1.12031 37.2459C1.2175 39.3747 1.55562 40.8284 2.05 42.1006C2.56094 43.4159 3.245 44.5312 4.35687 45.6431C5.46875 46.755 6.58406 47.4388 7.89937 47.95C9.17156 48.4444 10.6253 48.7825 12.7541 48.8797C14.8872 48.9769 15.5684 49 21 49C26.4316 49 27.1128 48.9769 29.2459 48.8797C31.3747 48.7825 32.8284 48.4444 34.1006 47.95C35.4159 47.4388 36.5312 46.755 37.6431 45.6431C38.755 44.5312 39.4388 43.4159 39.95 42.1006C40.4444 40.8284 40.7825 39.3747 40.8797 37.2459C40.9769 35.1128 41 34.4316 41 29C41 23.5684 40.9769 22.8872 40.8797 20.7541C40.7825 18.6253 40.4444 17.1716 39.95 15.8994C39.4388 14.5841 38.755 13.4688 37.6431 12.3569C36.5312 11.245 35.4159 10.5612 34.1006 10.05C32.8284 9.55562 31.3747 9.2175 29.2459 9.12031C27.1128 9.02313 26.4316 9 21 9Z" fill="#E0D7D0"/>
<path fill-rule="evenodd" clip-rule="evenodd" d="M34.0759 18.3241C34.0759 19.6497 33.0013 20.7241 31.6759 20.7241C30.3506 20.7241 29.2759 19.6497 29.2759 18.3241C29.2759 16.9984 30.3506 15.9241 31.6759 15.9241C33.0016 15.9241 34.0759 16.9984 34.0759 18.3241ZM21 35.6666C17.3181 35.6666 14.3334 32.6819 14.3334 29C14.3334 25.3181 17.3181 22.3334 21 22.3334C24.6819 22.3334 27.6666 25.3181 27.6666 29C27.6666 32.6819 24.6819 35.6666 21 35.6666ZM21 18.7297C15.3278 18.7297 10.7297 23.3278 10.7297 29C10.7297 34.6722 15.3278 39.2703 21 39.2703C26.6722 39.2703 31.2703 34.6722 31.2703 29C31.2703 23.3278 26.6722 18.7297 21 18.7297ZM21 12.6037C26.3403 12.6037 26.9728 12.6241 29.0816 12.7203C31.0316 12.8094 32.0906 13.135 32.7953 13.4091C33.7288 13.7719 34.395 14.2053 35.095 14.9053C35.795 15.605 36.2284 16.2713 36.5912 17.205C36.865 17.9097 37.1909 18.9688 37.28 20.9187C37.3763 23.0278 37.3966 23.6603 37.3966 29.0006C37.3966 34.3409 37.3763 34.9734 37.28 37.0822C37.1909 39.0322 36.8653 40.0913 36.5912 40.7959C36.2284 41.7294 35.795 42.3956 35.095 43.0956C34.3953 43.7956 33.7291 44.2291 32.7953 44.5919C32.0906 44.8656 31.0316 45.1916 29.0816 45.2806C26.9728 45.3769 26.3403 45.3972 21 45.3972C15.6594 45.3972 15.0269 45.3769 12.9181 45.2806C10.9681 45.1916 9.90906 44.8659 9.20438 44.5919C8.27094 44.2291 7.60469 43.7956 6.90469 43.0956C6.205 42.3959 5.77125 41.7297 5.40844 40.7959C5.13469 40.0913 4.80875 39.0322 4.71969 37.0822C4.62344 34.9731 4.60312 34.3406 4.60312 29.0006C4.60312 23.6603 4.62344 23.0278 4.71969 20.9187C4.80875 18.9688 5.13438 17.9097 5.40844 17.205C5.77125 16.2716 6.20469 15.6053 6.90469 14.9053C7.60438 14.2053 8.27063 13.7719 9.20438 13.4091C9.90906 13.1353 10.9681 12.8094 12.9181 12.7203C15.0272 12.6241 15.6597 12.6037 21 12.6037ZM21 9C15.5684 9 14.8872 9.02313 12.7541 9.12031C10.6253 9.2175 9.17125 9.55562 7.89937 10.05C6.58406 10.5609 5.46875 11.245 4.35687 12.3569C3.245 13.4688 2.56094 14.5841 2.05 15.8994C1.55562 17.1716 1.2175 18.6253 1.12031 20.7541C1.02313 22.8872 1 23.5684 1 29C1 34.4316 1.02313 35.1128 1.12031 37.2459C1.2175 39.3747 1.55562 40.8284 2.05 42.1006C2.56094 43.4159 3.245 44.5312 4.35687 45.6431C5.46875 46.755 6.58406 47.4388 7.89937 47.95C9.17156 48.4444 10.6253 48.7825 12.7541 48.8797C14.8872 48.9769 15.5684 49 21 49C26.4316 49 27.1128 48.9769 29.2459 48.8797C31.3747 48.7825 32.8284 48.4444 34.1006 47.95C35.4159 47.4388 36.5312 46.755 37.6431 45.6431C38.755 44.5312 39.4388 43.4159 39.95 42.1006C40.4444 40.8284 40.7825 39.3747 40.8797 37.2459C40.9769 35.1128 41 34.4316 41 29C41 23.5684 40.9769 22.8872 40.8797 20.7541C40.7825 18.6253 40.4444 17.1716 39.95 15.8994C39.4388 14.5841 38.755 13.4688 37.6431 12.3569C36.5312 11.245 35.4159 10.5612 34.1006 10.05C32.8284 9.55562 31.3747 9.2175 29.2459 9.12031C27.1128 9.02313 26.4316 9 21 9Z" fill="url(#paint0_linear)"/>
<defs>
<linearGradient id="paint0_linear" x1="-15" y1="69.5" x2="32" y2="18.5" gradientUnits="userSpaceOnUse">
<stop/>
<stop offset="1" stop-color="#D5C5BA"/>
</linearGradient>
</defs>
</svg>
