<svg width="43" height="58" viewBox="0 0 43 58" fill="none" xmlns="http://www.w3.org/2000/svg">
<path d="M1 38.1721L4.38389 44.017C5.04449 45.3399 6.41962 46.2443 7.99697 46.2443H30.4169L25.7658 38.1721H1Z" fill="#D5C5BA"/>
<path d="M1 38.1721L4.38389 44.017C5.04449 45.3399 6.41962 46.2443 7.99697 46.2443H30.4169L25.7658 38.1721H1Z" fill="url(#paint0_linear)"/>
<path d="M41 38.2131C41 37.4032 40.7573 36.6473 40.3529 36.0264L27.2083 13.1463C26.5342 11.8639 25.186 11 23.6356 11H16.6926L36.996 46.2043L40.1911 40.6564C40.8247 39.6035 41 39.131 41 38.2131Z" fill="#D5C5BA"/>
<path d="M41 38.2131C41 37.4032 40.7573 36.6473 40.3529 36.0264L27.2083 13.1463C26.5342 11.8639 25.186 11 23.6356 11H16.6926L36.996 46.2043L40.1911 40.6564C40.8247 39.6035 41 39.131 41 38.2131Z" fill="url(#paint1_linear)"/>
<path d="M22.4492 32.4348L13.3761 16.709L4.30295 32.4348H22.4492Z" fill="#D5C5BA"/>
<path d="M22.4492 32.4348L13.3761 16.709L4.30295 32.4348H22.4492Z" fill="url(#paint2_linear)"/>
<defs>
<linearGradient id="paint0_linear" x1="2.5" y1="66" x2="24.5" y2="11" gradientUnits="userSpaceOnUse">
<stop/>
<stop offset="1" stop-color="#D5C5BA"/>
</linearGradient>
<linearGradient id="paint1_linear" x1="2.5" y1="66" x2="24.5" y2="11" gradientUnits="userSpaceOnUse">
<stop/>
<stop offset="1" stop-color="#D5C5BA"/>
</linearGradient>
<linearGradient id="paint2_linear" x1="2.5" y1="66" x2="24.5" y2="11" gradientUnits="userSpaceOnUse">
<stop/>
<stop offset="1" stop-color="#D5C5BA"/>
</linearGradient>
</defs>
</svg>
