<svg width="43" height="58" viewBox="0 0 43 58" fill="none" xmlns="http://www.w3.org/2000/svg">
<path d="M39.3116 33.2488C39.5919 31.9481 39.7481 30.5957 39.7481 29.211C39.7481 18.82 31.3231 10.3993 20.933 10.3993C19.8358 10.3993 18.7599 10.4941 17.7161 10.6719C16.0322 9.61669 14.0433 9 11.9097 9C5.88638 9 1 13.8842 1 19.907C1 21.923 1.54961 23.805 2.50182 25.4261C2.2528 26.6472 2.12129 27.9138 2.12129 29.2095C2.12129 39.5978 10.5424 48.0206 20.9331 48.0206C22.1091 48.0206 23.2607 47.9096 24.3795 47.7065C25.9138 48.5305 27.6712 49 29.5364 49C35.5597 49 40.4469 44.1159 40.4469 38.0912C40.4469 36.3532 40.0339 34.7082 39.3116 33.2488ZM30.5803 38.2037C29.7112 39.434 28.426 40.4115 26.7581 41.1039C25.1091 41.7891 23.1292 42.1361 20.8817 42.1361C18.1795 42.1361 15.9146 41.6596 14.1456 40.7235C12.883 40.0394 11.8401 39.1168 11.0485 37.9744C10.248 36.8229 9.844 35.6795 9.844 34.5735C9.844 33.8852 10.1117 33.2909 10.6299 32.7989C11.145 32.3148 11.8074 32.0676 12.5933 32.0676C13.2413 32.0676 13.7983 32.2626 14.2526 32.6445C14.6865 33.014 15.0538 33.5547 15.3558 34.2563C15.6908 35.0192 16.0511 35.667 16.4351 36.1728C16.8046 36.6621 17.3353 37.0694 18.0158 37.3918C18.6947 37.7162 19.6156 37.8795 20.7475 37.8795C22.3051 37.8795 23.5768 37.5447 24.5362 36.8912C25.4734 36.2527 25.9262 35.4846 25.9262 34.5445C25.9262 33.8018 25.6933 33.2178 25.1999 32.7606C24.6921 32.2822 24.0134 31.9096 23.1911 31.6526C22.3395 31.3836 21.1749 31.098 19.7412 30.7953C17.7884 30.3807 16.1291 29.8841 14.8096 29.3218C13.4631 28.747 12.3752 27.9532 11.58 26.9561C10.7718 25.9443 10.3645 24.6782 10.3645 23.1876C10.3645 21.7649 10.7938 20.487 11.6419 19.3787C12.4825 18.2822 13.7125 17.4279 15.2916 16.8464C16.8567 16.267 18.713 15.9726 20.813 15.9726C22.4944 15.9726 23.9677 16.1674 25.202 16.5531C26.4429 16.9408 27.4895 17.4611 28.3096 18.1037C29.1362 18.7496 29.7545 19.4409 30.1387 20.1582C30.5305 20.888 30.7245 21.6062 30.7245 22.3048C30.7245 22.9766 30.4661 23.588 29.953 24.1194C29.4405 24.6547 28.7881 24.931 28.0224 24.931C27.3275 24.931 26.7812 24.76 26.4049 24.4251C26.05 24.1137 25.6819 23.6265 25.2783 22.931C24.8123 22.0411 24.2448 21.341 23.5928 20.8424C22.9598 20.3604 21.9044 20.1162 20.4532 20.1162C19.1041 20.1162 18.0084 20.3873 17.1922 20.9222C16.4073 21.4353 16.0276 22.0272 16.0276 22.7253C16.0276 23.1529 16.1475 23.5151 16.4024 23.8209C16.6678 24.147 17.0464 24.4321 17.5231 24.6725C18.0199 24.9223 18.527 25.1181 19.0366 25.2586C19.5589 25.4022 20.4377 25.6168 21.6374 25.8971C23.1606 26.2226 24.5594 26.5889 25.797 26.9839C27.0492 27.386 28.1329 27.879 29.014 28.4537C29.9151 29.0415 30.6302 29.7972 31.1378 30.6916C31.6417 31.5967 31.8997 32.7119 31.8997 34.0076C31.8961 35.5541 31.4541 36.9659 30.5803 38.2037Z" fill="#D5C5BA"/>
<path d="M39.3116 33.2488C39.5919 31.9481 39.7481 30.5957 39.7481 29.211C39.7481 18.82 31.3231 10.3993 20.933 10.3993C19.8358 10.3993 18.7599 10.4941 17.7161 10.6719C16.0322 9.61669 14.0433 9 11.9097 9C5.88638 9 1 13.8842 1 19.907C1 21.923 1.54961 23.805 2.50182 25.4261C2.2528 26.6472 2.12129 27.9138 2.12129 29.2095C2.12129 39.5978 10.5424 48.0206 20.9331 48.0206C22.1091 48.0206 23.2607 47.9096 24.3795 47.7065C25.9138 48.5305 27.6712 49 29.5364 49C35.5597 49 40.4469 44.1159 40.4469 38.0912C40.4469 36.3532 40.0339 34.7082 39.3116 33.2488ZM30.5803 38.2037C29.7112 39.434 28.426 40.4115 26.7581 41.1039C25.1091 41.7891 23.1292 42.1361 20.8817 42.1361C18.1795 42.1361 15.9146 41.6596 14.1456 40.7235C12.883 40.0394 11.8401 39.1168 11.0485 37.9744C10.248 36.8229 9.844 35.6795 9.844 34.5735C9.844 33.8852 10.1117 33.2909 10.6299 32.7989C11.145 32.3148 11.8074 32.0676 12.5933 32.0676C13.2413 32.0676 13.7983 32.2626 14.2526 32.6445C14.6865 33.014 15.0538 33.5547 15.3558 34.2563C15.6908 35.0192 16.0511 35.667 16.4351 36.1728C16.8046 36.6621 17.3353 37.0694 18.0158 37.3918C18.6947 37.7162 19.6156 37.8795 20.7475 37.8795C22.3051 37.8795 23.5768 37.5447 24.5362 36.8912C25.4734 36.2527 25.9262 35.4846 25.9262 34.5445C25.9262 33.8018 25.6933 33.2178 25.1999 32.7606C24.6921 32.2822 24.0134 31.9096 23.1911 31.6526C22.3395 31.3836 21.1749 31.098 19.7412 30.7953C17.7884 30.3807 16.1291 29.8841 14.8096 29.3218C13.4631 28.747 12.3752 27.9532 11.58 26.9561C10.7718 25.9443 10.3645 24.6782 10.3645 23.1876C10.3645 21.7649 10.7938 20.487 11.6419 19.3787C12.4825 18.2822 13.7125 17.4279 15.2916 16.8464C16.8567 16.267 18.713 15.9726 20.813 15.9726C22.4944 15.9726 23.9677 16.1674 25.202 16.5531C26.4429 16.9408 27.4895 17.4611 28.3096 18.1037C29.1362 18.7496 29.7545 19.4409 30.1387 20.1582C30.5305 20.888 30.7245 21.6062 30.7245 22.3048C30.7245 22.9766 30.4661 23.588 29.953 24.1194C29.4405 24.6547 28.7881 24.931 28.0224 24.931C27.3275 24.931 26.7812 24.76 26.4049 24.4251C26.05 24.1137 25.6819 23.6265 25.2783 22.931C24.8123 22.0411 24.2448 21.341 23.5928 20.8424C22.9598 20.3604 21.9044 20.1162 20.4532 20.1162C19.1041 20.1162 18.0084 20.3873 17.1922 20.9222C16.4073 21.4353 16.0276 22.0272 16.0276 22.7253C16.0276 23.1529 16.1475 23.5151 16.4024 23.8209C16.6678 24.147 17.0464 24.4321 17.5231 24.6725C18.0199 24.9223 18.527 25.1181 19.0366 25.2586C19.5589 25.4022 20.4377 25.6168 21.6374 25.8971C23.1606 26.2226 24.5594 26.5889 25.797 26.9839C27.0492 27.386 28.1329 27.879 29.014 28.4537C29.9151 29.0415 30.6302 29.7972 31.1378 30.6916C31.6417 31.5967 31.8997 32.7119 31.8997 34.0076C31.8961 35.5541 31.4541 36.9659 30.5803 38.2037Z" fill="url(#paint0_linear)"/>
<defs>
<linearGradient id="paint0_linear" x1="-2.5" y1="62.5" x2="35.5" y2="16.5" gradientUnits="userSpaceOnUse">
<stop/>
<stop offset="1" stop-color="#D5C5BA"/>
</linearGradient>
</defs>
</svg>
