<svg width="43" height="58" viewBox="0 0 43 58" fill="none" xmlns="http://www.w3.org/2000/svg">
<path d="M39.4304 17.9992H32.9395C32.6745 17.9992 32.4146 18.0712 32.1872 18.2075C31.9598 18.3438 31.7736 18.5394 31.6483 18.7733C31.6483 18.7733 29.0595 23.5513 28.2279 25.1607C25.9908 29.4899 24.5421 28.1308 24.5421 26.1216V19.1936C24.5421 18.6147 24.3127 18.0595 23.9042 17.6501C23.4957 17.2408 22.9417 17.0108 22.364 17.0108H17.4837C16.819 16.9613 16.1528 17.0828 15.5483 17.364C14.9437 17.6451 14.4209 18.0764 14.0295 18.617C14.0295 18.617 16.5077 18.2155 16.5077 21.5618C16.5077 22.3915 16.5504 24.7786 16.5892 26.7808C16.5965 27.0758 16.5134 27.366 16.3509 27.6122C16.1884 27.8583 15.9545 28.0486 15.6807 28.1573C15.4069 28.266 15.1064 28.2879 14.8198 28.22C14.5332 28.1521 14.2743 27.9978 14.078 27.7777C12.0804 24.9934 10.4258 21.9775 9.14996 18.7955C9.04039 18.5575 8.86499 18.356 8.64457 18.2148C8.42415 18.0737 8.16796 17.9989 7.90638 17.9992C6.4987 17.9992 3.68179 17.9992 2.00893 17.9992C1.84671 17.9981 1.68665 18.0365 1.54249 18.1111C1.39834 18.1856 1.2744 18.2942 1.18133 18.4273C1.08826 18.5605 1.02884 18.7143 1.00817 18.8755C0.987498 19.0368 1.0062 19.2006 1.06266 19.353C2.85342 24.2756 10.5674 39.7451 19.3722 39.7451H23.0781C23.4664 39.7451 23.8388 39.5905 24.1133 39.3154C24.3879 39.0402 24.5421 38.667 24.5421 38.2779V36.0353C24.5421 35.754 24.6243 35.4788 24.7784 35.2437C24.9326 35.0085 25.152 34.8237 25.4096 34.7121C25.6673 34.6004 25.9519 34.5667 26.2284 34.6151C26.505 34.6635 26.7613 34.7919 26.9659 34.9846L31.4016 39.1612C31.8 39.5363 32.326 39.7451 32.8726 39.7451H38.6975C41.5069 39.7451 41.5069 37.7915 39.9752 36.2797C38.8972 35.2158 35.0074 31.1069 35.0074 31.1069C34.6743 30.7611 34.4756 30.3072 34.4472 29.8274C34.4189 29.3476 34.5627 28.8734 34.8528 28.4906C36.1101 26.8325 38.1666 24.1182 39.0388 22.9555C40.2309 21.3661 42.3885 17.9992 39.4304 17.9992Z" fill="#D5C5BA"/>
<path d="M39.4304 17.9992H32.9395C32.6745 17.9992 32.4146 18.0712 32.1872 18.2075C31.9598 18.3438 31.7736 18.5394 31.6483 18.7733C31.6483 18.7733 29.0595 23.5513 28.2279 25.1607C25.9908 29.4899 24.5421 28.1308 24.5421 26.1216V19.1936C24.5421 18.6147 24.3127 18.0595 23.9042 17.6501C23.4957 17.2408 22.9417 17.0108 22.364 17.0108H17.4837C16.819 16.9613 16.1528 17.0828 15.5483 17.364C14.9437 17.6451 14.4209 18.0764 14.0295 18.617C14.0295 18.617 16.5077 18.2155 16.5077 21.5618C16.5077 22.3915 16.5504 24.7786 16.5892 26.7808C16.5965 27.0758 16.5134 27.366 16.3509 27.6122C16.1884 27.8583 15.9545 28.0486 15.6807 28.1573C15.4069 28.266 15.1064 28.2879 14.8198 28.22C14.5332 28.1521 14.2743 27.9978 14.078 27.7777C12.0804 24.9934 10.4258 21.9775 9.14996 18.7955C9.04039 18.5575 8.86499 18.356 8.64457 18.2148C8.42415 18.0737 8.16796 17.9989 7.90638 17.9992C6.4987 17.9992 3.68179 17.9992 2.00893 17.9992C1.84671 17.9981 1.68665 18.0365 1.54249 18.1111C1.39834 18.1856 1.2744 18.2942 1.18133 18.4273C1.08826 18.5605 1.02884 18.7143 1.00817 18.8755C0.987498 19.0368 1.0062 19.2006 1.06266 19.353C2.85342 24.2756 10.5674 39.7451 19.3722 39.7451H23.0781C23.4664 39.7451 23.8388 39.5905 24.1133 39.3154C24.3879 39.0402 24.5421 38.667 24.5421 38.2779V36.0353C24.5421 35.754 24.6243 35.4788 24.7784 35.2437C24.9326 35.0085 25.152 34.8237 25.4096 34.7121C25.6673 34.6004 25.9519 34.5667 26.2284 34.6151C26.505 34.6635 26.7613 34.7919 26.9659 34.9846L31.4016 39.1612C31.8 39.5363 32.326 39.7451 32.8726 39.7451H38.6975C41.5069 39.7451 41.5069 37.7915 39.9752 36.2797C38.8972 35.2158 35.0074 31.1069 35.0074 31.1069C34.6743 30.7611 34.4756 30.3072 34.4472 29.8274C34.4189 29.3476 34.5627 28.8734 34.8528 28.4906C36.1101 26.8325 38.1666 24.1182 39.0388 22.9555C40.2309 21.3661 42.3885 17.9992 39.4304 17.9992Z" fill="url(#paint0_linear)"/>
<defs>
<linearGradient id="paint0_linear" x1="-3.5" y1="60" x2="41" y2="17" gradientUnits="userSpaceOnUse">
<stop/>
<stop offset="1" stop-color="#D5C5BA"/>
</linearGradient>
</defs>
</svg>
