<svg width="81" height="80" viewBox="0 0 81 80" fill="none" xmlns="http://www.w3.org/2000/svg">
<path d="M80.4941 0H0V80H80.4941V0Z" fill="#FF7C00"/>
<path d="M73.7481 6.70435H6.74597V73.2956H73.7481V6.70435Z" fill="#261300"/>
<path d="M60.329 32.0447H53.9731C53.8094 32.0447 53.6766 32.1774 53.6766 32.3411V58.4357C53.6766 58.5994 53.8094 58.7321 53.9731 58.7321H60.329C60.4927 58.7321 60.6255 58.5994 60.6255 58.4357V32.3411C60.6255 32.1774 60.4927 32.0447 60.329 32.0447Z" fill="#FF7C00"/>
<path d="M57.1511 28.5183C59.1906 28.5183 60.8439 26.9371 60.8439 24.9866C60.8439 23.0362 59.1906 21.455 57.1511 21.455C55.1115 21.455 53.4582 23.0362 53.4582 24.9866C53.4582 26.9371 55.1115 28.5183 57.1511 28.5183Z" fill="#FF7C00"/>
<path fill-rule="evenodd" clip-rule="evenodd" d="M39.9402 49.4012L42.546 58.03C42.6812 58.5397 42.9465 58.6646 43.3054 58.6594H49.9785C50.4935 58.6646 50.5299 58.5085 50.4519 58.1652L39.4305 21.403C39.4097 21.3354 39.3576 21.2886 39.2536 21.2886L30.011 21.2626C29.647 21.2626 29.6418 21.4498 29.673 21.8035C29.7874 23.083 29.725 23.8008 29.4545 24.8046L19.697 58.1861C19.593 58.5033 19.619 58.6594 20.0351 58.6646L26.3338 58.6594C26.9995 58.6386 27.0359 58.4565 27.1504 58.1236L29.3349 49.4012H39.9402ZM38.5931 42.6916H30.9421L34.6505 27.6913L38.5931 42.6916Z" fill="#FF7C00"/>
</svg>
