<svg width="81" height="80" viewBox="0 0 81 80" fill="none" xmlns="http://www.w3.org/2000/svg">
<path d="M80.4949 0H0V80H80.4949V0Z" fill="#E4469C"/>
<path d="M73.7488 6.70447H6.74609V73.2956H73.7488V6.70447Z" fill="#252653"/>
<path d="M29.8913 21.3792H23.2389C23.072 21.3792 22.9368 21.5144 22.9368 21.6813V57.9644C22.9368 58.1313 23.072 58.2666 23.2389 58.2666H29.8913C30.0581 58.2666 30.1934 58.1313 30.1934 57.9644V21.6813C30.1934 21.5144 30.0581 21.3792 29.8913 21.3792Z" fill="#E4469C"/>
<path fill-rule="evenodd" clip-rule="evenodd" d="M49.7337 35.434V52.6717C43.545 53.1302 41.1122 48.7543 41.0236 44.2899C40.9872 42.3781 41.3622 40.4402 42.0916 38.8826C43.5502 35.7726 46.6758 35.2204 49.7337 35.434ZM57.3549 54.6357V21.2281L49.494 21.077L49.4315 29.3912C49.4315 29.4172 49.1815 29.3859 49.1294 29.3912C48.1761 29.4745 44.0972 28.7556 40.0599 31.5061C36.7311 33.7722 33.6628 37.0958 33.5586 44.5087C33.4336 53.4479 39.1899 58.4906 47.4468 58.9021C49.8222 59.0167 52.354 58.7042 54.5732 57.8082C55.016 57.631 55.7557 57.3185 56.3912 57.0215C57.2924 56.5996 57.7457 56.2974 57.4748 55.3702L57.3549 54.6357Z" fill="#E4469C"/>
</svg>
