<svg width="80" height="80" viewBox="0 0 80 80" fill="none" xmlns="http://www.w3.org/2000/svg">
<path d="M0 0H80V80H0V0Z" fill="#F7DF1E"/>
<path d="M21.0001 67.1268L27.2581 63.4217C28.4654 65.5159 29.5637 67.2877 32.198 67.2877C34.7232 67.2877 36.3152 66.3213 36.3152 62.5625V37H44V62.6688C44 70.4557 39.3344 74 32.5275 74C26.3799 74 22.8114 70.8851 21 67.1262" fill="black"/>
<path d="M48 66.2037L54.0858 62.6055C55.6879 65.2772 57.7701 67.2397 61.4537 67.2397C64.5506 67.2397 66.5255 65.6585 66.5255 63.4777C66.5255 60.8608 64.4968 59.9339 61.0799 58.4079L59.2118 57.5895C53.8192 55.2456 50.242 52.3016 50.242 46.0863C50.242 40.3617 54.513 36 61.1869 36C65.9386 36 69.3554 37.6903 71.811 42.1064L65.9916 45.9225C64.7102 43.5784 63.3225 42.6517 61.187 42.6517C58.9981 42.6517 57.6099 44.0692 57.6099 45.9225C57.6099 48.2124 58.9981 49.1395 62.201 50.5571L64.0695 51.3748C70.4228 54.1554 74 56.9901 74 63.3687C74 70.2385 68.7146 74 61.614 74C54.6735 74 50.1887 70.62 48.0001 66.2037" fill="black"/>
</svg>
