<svg width="81" height="80" viewBox="0 0 81 80" fill="none" xmlns="http://www.w3.org/2000/svg">
<path d="M80.4941 0H0V80H80.4941V0Z" fill="#87BCF6"/>
<path d="M73.7481 6.70441H6.74597V73.2957H73.7481V6.70441Z" fill="#252653"/>
<path fill-rule="evenodd" clip-rule="evenodd" d="M59.6788 31.4518C53.7182 28.4455 43.4562 29.9018 43.4562 37.7453C43.4562 43.5862 47.4976 45.8852 52.4387 47.8148C59.4604 50.5559 52.6364 55.7363 44.0648 50.379C44.0648 50.379 43.7579 50.2282 43.607 50.379C43.4562 50.5299 43.4562 50.6807 43.4562 50.8367C43.4562 50.9876 43.4562 56.4645 43.4562 56.4645C46.4521 57.9988 48.6886 58.779 52.1474 58.7426C63.3041 58.6282 64.9112 47.9449 58.9767 43.8359C57.9 43.0869 55.0185 41.5942 54.1083 41.2457C49.3908 39.4461 49.7913 36.8871 51.2892 35.5972C52.9432 34.1668 57.5307 36.3305 59.4604 37.5372C60.6306 38.2602 60.8231 37.3604 60.8179 36.5698L60.8023 32.8301C60.8023 31.9407 60.4954 31.8679 59.6788 31.4518Z" fill="#87BCF6"/>
<path fill-rule="evenodd" clip-rule="evenodd" d="M25.2259 40.7932V27.0931C25.2259 27.0255 25.4652 26.7915 25.5276 26.7915C31.3322 26.495 34.6349 27.6289 34.9314 33.8287C35.2695 40.944 29.3037 41.0948 25.2259 41.0948V40.7932ZM18.2251 21.7671V58.5969H25.2259V46.7278C33.8287 47.3415 41.589 44.2572 41.589 34.3124C41.589 30.3023 40.3407 26.2661 37.3812 23.8268C33.2462 20.4148 23.5823 21.1742 18.2251 21.7671Z" fill="#87BCF6"/>
</svg>
