<svg width="74" height="80" viewBox="0 0 74 80" fill="none" xmlns="http://www.w3.org/2000/svg">
<path d="M48.9433 0L0 6.36364L6.71648 48.3471L16.9985 80L68.6159 65.3512L73.985 19.6694L48.9433 0Z" fill="#C82F32"/>
<path d="M29.5614 48.1204L15.0376 51.2832L17.8001 59.5489L33.6842 55.6902L29.5614 48.1204Z" fill="white"/>
<path d="M10.2256 29.6977L12.8735 37.2932L43.9098 30.9155L38.9629 24.6616L10.2256 29.6977Z" fill="white"/>
<path d="M43.7396 30.6766L28.2707 33.8245L32.5515 40.9022L49.3233 37.2605L43.7396 30.6766Z" fill="white"/>
<path d="M67.9699 20.8796L54.4791 10.4708L47.277 4.81201L4.81203 10.2849L7.19887 17.0796L38.6222 12.6806L49.8507 24.0601L67.9699 20.8796Z" fill="white"/>
</svg>
